Coordinates
version=1
nRows=10
nColumns=40
inDegrees=yes

Units are S.I. units (second, meters, Newtons, ...)
Angles are in degrees.

endheader
time	pelvis_tilt	pelvis_list	pelvis_rotation	pelvis_tx	pelvis_ty	pelvis_tz	hip_flexion_r	hip_adduction_r	hip_rotation_r	knee_angle_r	knee_angle_r_beta	ankle_angle_r	subtalar_angle_r	mtp_angle_r	hip_flexion_l	hip_adduction_l	hip_rotation_l	knee_angle_l	knee_angle_l_beta	ankle_angle_l	subtalar_angle_l	mtp_angle_l	lumbar_extension	lumbar_bending	lumbar_rotation	arm_flex_r	arm_add_r	arm_rot_r	elbow_flex_r	pro_sup_r	wrist_flex_r	wrist_dev_r	arm_flex_l	arm_add_l	arm_rot_l	elbow_flex_l	pro_sup_l	wrist_flex_l	wrist_dev_l
     37.83000000	     -4.37899336	     -3.42886124	      0.07080828	      0.93504380	      0.92182682	      0.39986140	      6.67207979	     -7.38593584	     -6.14270331	     39.91648315	     39.91648315	      7.16011903	     -6.44082244	    -19.27655504	     20.20858323	     -1.16044220	      0.04605212	     29.23433637	     29.23433637	     15.88270413	    -14.41037094	      6.15920569	     -7.75197571	      6.09837439	      4.16321103	     27.37568704	    -14.81836252	    -16.99922138	     30.99031083	     45.49344385	      0.00000000	      0.00000000	      9.08000084	    -12.70212572	     15.96157287	     35.47994448	     44.82017812	      0.00000000	      0.00000000
     37.85357143	     -4.28742546	     -3.43965680	     -0.49069156	      0.93374181	      0.91969374	      0.39764134	      9.65416283	     -7.46555681	     -5.03331685	     45.22409096	     45.22409096	      5.43948962	    -10.14013876	    -18.44237921	     20.39184858	     -1.01074796	      0.01960953	     30.34430946	     30.34430946	     16.51856982	    -15.31831324	      6.20145965	     -8.05900725	      6.24620104	      3.93105865	     24.02152492	    -14.28162117	    -16.99449461	     29.35571550	     45.56179592	      0.00000000	      0.00000000	     11.12888965	    -13.15839284	     15.49330327	     36.98075577	     44.92503924	      0.00000000	      0.00000000
     37.87714286	     -4.13803292	     -3.27423045	     -1.09255801	      0.93249654	      0.91748282	      0.39540294	     12.47396895	     -7.79051093	     -4.24075248	     50.14942531	     50.14942531	      3.78435765	    -12.92808469	    -17.42652465	     20.45084978	     -0.70300175	     -0.18623659	     31.36735451	     31.36735451	     17.10431988	    -16.12843070	      6.08655017	     -8.46155777	      6.19559612	      3.47892151	     20.70424838	    -13.57843878	    -16.91720744	     27.79445062	     45.60329349	      0.00000000	      0.00000000	     13.27074150	    -13.77730275	     15.03281921	     38.15266985	     45.01569528	      0.00000000	      0.00000000
     37.90071429	     -4.02840779	     -3.40160368	     -1.69711454	      0.93122505	      0.91547703	      0.39360893	     15.30448579	     -7.38952070	     -3.14376891	     54.85197259	     54.85197259	      4.42125230	    -14.58790405	     -9.31281880	     20.61148771	     -0.71858833	     -0.25712969	     32.57535692	     32.57535692	     18.45792710	    -16.54895260	      7.69095550	     -8.84736137	      6.50663112	      3.49235872	     17.02309068	    -13.25011965	    -16.34950986	     25.96252074	     45.69759748	      0.00000000	      0.00000000	     15.30793266	    -14.30587779	     13.99330125	     40.59588007	     45.23361247	      0.00000000	      0.00000000
     37.92428571	     -3.92842950	     -3.29691935	     -2.36263536	      0.92999559	      0.91372539	      0.39197701	     17.75637137	     -7.36873092	     -2.43286877	     58.28736062	     58.28736062	      3.27542353	    -16.69868041	     -7.89683715	     20.54778016	     -0.52993017	     -0.54121817	     33.29443415	     33.29443415	     18.97601601	    -17.17018668	      7.61725077	     -9.19300416	      6.53658937	      3.27192134	     13.57954147	    -12.71878276	    -16.23220145	     24.35788031	     45.73961860	      0.00000000	      0.00000000	     17.62695242	    -14.93048445	     13.40225924	     41.84676569	     45.33859857	      0.00000000	      0.00000000
     37.94785714	     -3.84144192	     -3.36839158	     -3.07192241	      0.92884475	      0.91255247	      0.39092617	     20.00773647	     -7.04041629	     -1.84607076	     60.94176864	     60.94176864	      3.39131870	    -17.85645607	     -4.28604972	     20.40246464	     -0.59938348	     -0.89163815	     33.87416859	     33.87416859	     19.61147090	    -17.55637381	      7.94112743	     -9.51403608	      6.76065746	      3.75647458	      9.76651344	    -12.50965741	    -16.01988292	     22.71423840	     45.78497804	      0.00000000	      0.00000000	     20.06131362	    -15.28451437	     12.51689513	     43.70131847	     45.48457472	      0.00000000	      0.00000000
     37.97142857	     -3.68917214	     -3.38880070	     -3.78296340	      0.92760916	      0.91208894	      0.39038857	     22.19380617	     -6.62766142	     -1.24017552	     63.13426760	     63.13426760	      5.92667998	    -17.71313022	      4.75631408	     20.06495457	     -0.64588512	     -1.27319156	     34.23755674	     34.23755674	     20.55624911	    -17.67361345	      9.20110973	     -9.96628749	      6.88364788	      3.24212784	      6.41910690	    -11.90058716	    -15.18835095	     22.63205651	     45.77923740	      0.00000000	      0.00000000	     21.93690457	    -16.08393356	     10.67195555	     45.48768195	     45.74473048	      0.00000000	      0.00000000
     37.99500000	     -3.68691763	     -3.37146965	     -4.59612053	      0.92636728	      0.91219926	      0.39033727	     24.03163968	     -6.36581767	     -0.92320134	     63.72110522	     63.72110522	      6.17914037	    -18.26907112	      5.14871671	     19.63219169	     -0.73044806	     -1.84212562	     34.08066968	     34.08066968	     20.81255121	    -17.87728065	      9.29574147	    -10.17728400	      6.95668136	      3.17779733	      3.37005942	    -11.45803863	    -14.98513990	     21.49754151	     45.80056950	      0.00000000	      0.00000000	     24.11017397	    -16.84658863	      9.87283660	     46.87648066	     45.86270214	      0.00000000	      0.00000000
     38.01857143	     -3.71177848	     -3.41713017	     -5.45747467	      0.92503472	      0.91303856	      0.39090868	     25.64294336	     -5.94715418	     -0.66184006	     63.29952555	     63.29952555	      6.87783741	    -18.46888644	      5.51597662	     19.05543889	     -0.92950764	     -2.46386541	     33.60863890	     33.60863890	     20.98564930	    -17.97641716	      9.48734686	    -10.38923993	      7.05955058	      3.17281052	      0.45063999	    -11.01192287	    -14.78970510	     20.76661173	     45.80429006	      0.00000000	      0.00000000	     26.18979939	    -17.62797011	      8.86351481	     48.49072787	     45.99938340	      0.00000000	      0.00000000
     38.04214286	     -3.89724799	     -3.57623664	     -6.31263113	      0.92354139	      0.91430318	      0.39208347	     27.09873619	     -5.35515624	     -0.56079389	     61.81634449	     61.81634449	      7.74207649	    -18.35936570	      5.38072330	     18.56842317	     -1.31639579	     -3.10240248	     32.97944652	     32.97944652	     21.03147643	    -17.98210758	      9.64006260	    -10.35764433	      7.30778060	      2.53238807	     -1.77986552	    -10.54902236	    -14.76295025	     20.15872307	     45.81086527	      0.00000000	      0.00000000	     28.07394073	    -19.03759145	      8.16359991	     49.28181991	     46.08855610	      0.00000000	      0.00000000
